<svg xmlns="http://www.w3.org/2000/svg" width="132" height="34" viewBox="0 0 132 34" role="img" aria-labelledby="title">
  <title id="title">Download CV</title>
  <rect width="132" height="34" rx="6" fill="#0f766e"/>
  <g transform="translate(11 9)">
    <g fill="none" stroke="#ffffff" stroke-width="1.8" stroke-linecap="round" stroke-linejoin="round">
<path d="M8 2.2v7.2"/>
<path d="M4.8 6.7 8 9.9l3.2-3.2"/>
<path d="M2.6 13.2h10.8"/>
</g>
  </g>
  <g transform="translate(34 22) scale(1 -1)" fill="#ffffff">
    <path d="M5.02 0.00L0.99 0.00L0.99 9.36L5.02 9.36Q5.89 9.34 6.47 9.15Q7.45 8.83 8.06 7.97Q8.55 7.27 8.73 6.46Q8.91 5.64 8.91 4.91Q8.91 3.04 8.16 1.75Q7.14 0.00 5.02 0.00ZM6.47 6.97Q6.02 7.73 4.69 7.73L2.89 7.73L2.89 1.62L4.69 1.62Q6.07 1.62 6.62 2.99Q6.92 3.74 6.92 4.77Q6.92 6.20 6.47 6.97ZM16.00 6.04Q16.88 4.94 16.88 3.45Q16.88 1.92 16.00 0.84Q15.13 -0.24 13.34 -0.24Q11.56 -0.24 10.68 0.84Q9.81 1.92 9.81 3.45Q9.81 4.94 10.68 6.04Q11.56 7.14 13.34 7.14Q15.13 7.14 16.00 6.04ZM13.34 5.61Q12.54 5.61 12.11 5.05Q11.69 4.49 11.69 3.45Q11.69 2.41 12.11 1.84Q12.54 1.28 13.34 1.28Q14.13 1.28 14.56 1.84Q14.98 2.41 14.98 3.45Q14.98 4.49 14.56 5.05Q14.13 5.61 13.34 5.61ZM23.42 0.00L22.34 5.04L21.24 0.00L19.36 0.00L17.42 6.92L19.36 6.92L20.44 1.96L21.44 6.92L23.27 6.92L24.32 1.94L25.40 6.92L27.29 6.92L25.28 0.00ZM31.54 5.58Q30.62 5.58 30.28 4.80Q30.10 4.39 30.10 3.75L30.10 0.00L28.30 0.00L28.30 6.91L30.04 6.91L30.04 5.90Q30.39 6.43 30.70 6.67Q31.26 7.08 32.12 7.08Q33.19 7.08 33.87 6.52Q34.56 5.96 34.56 4.66L34.56 0.00L32.70 0.00L32.70 4.21Q32.70 4.75 32.56 5.05Q32.29 5.58 31.54 5.58ZM36.26 9.36L38.07 9.36L38.07 0.00L36.26 0.00ZM45.61 6.04Q46.48 4.94 46.48 3.45Q46.48 1.92 45.61 0.84Q44.73 -0.24 42.95 -0.24Q41.16 -0.24 40.29 0.84Q39.41 1.92 39.41 3.45Q39.41 4.94 40.29 6.04Q41.16 7.14 42.95 7.14Q44.73 7.14 45.61 6.04ZM42.94 5.61Q42.15 5.61 41.72 5.05Q41.29 4.49 41.29 3.45Q41.29 2.41 41.72 1.84Q42.15 1.28 42.94 1.28Q43.74 1.28 44.16 1.84Q44.59 2.41 44.59 3.45Q44.59 4.49 44.16 5.05Q43.74 5.61 42.94 5.61ZM48.04 6.17Q48.76 7.08 50.50 7.08Q51.64 7.08 52.52 6.63Q53.40 6.18 53.40 4.93L53.40 1.76Q53.40 1.43 53.42 0.96Q53.43 0.60 53.52 0.48Q53.61 0.35 53.79 0.27L53.79 0.00L51.82 0.00Q51.74 0.21 51.71 0.39Q51.68 0.58 51.66 0.81Q51.28 0.41 50.79 0.12Q50.21 -0.22 49.47 -0.22Q48.53 -0.22 47.92 0.32Q47.31 0.86 47.31 1.84Q47.31 3.12 48.29 3.69Q48.83 4.00 49.88 4.13L50.50 4.21Q51.00 4.27 51.21 4.37Q51.60 4.53 51.60 4.88Q51.60 5.31 51.30 5.47Q51.01 5.63 50.44 5.63Q49.80 5.63 49.53 5.31Q49.34 5.08 49.28 4.68L47.53 4.68Q47.59 5.59 48.04 6.17ZM49.38 1.31Q49.64 1.10 50.01 1.10Q50.59 1.10 51.08 1.44Q51.57 1.78 51.59 2.69L51.59 3.36Q51.42 3.26 51.25 3.19Q51.07 3.12 50.77 3.07L50.36 2.99Q49.79 2.89 49.54 2.74Q49.12 2.49 49.12 1.97Q49.12 1.51 49.38 1.31ZM61.31 9.34L61.31 0.00L59.55 0.00L59.55 0.96Q59.16 0.34 58.67 0.06Q58.17 -0.22 57.43 -0.22Q56.22 -0.22 55.39 0.76Q54.56 1.75 54.56 3.28Q54.56 5.05 55.38 6.07Q56.20 7.08 57.56 7.08Q58.19 7.08 58.68 6.81Q59.17 6.53 59.47 6.04L59.47 9.34ZM56.43 3.42Q56.43 2.46 56.81 1.89Q57.19 1.31 57.95 1.31Q58.72 1.31 59.12 1.88Q59.52 2.45 59.52 3.36Q59.52 4.63 58.88 5.17Q58.49 5.50 57.97 5.50Q57.17 5.50 56.80 4.90Q56.43 4.30 56.43 3.42ZM73.31 0.70Q72.26 -0.26 70.63 -0.26Q68.61 -0.26 67.46 1.03Q66.30 2.34 66.30 4.60Q66.30 7.05 67.62 8.38Q68.76 9.53 70.52 9.53Q72.88 9.53 73.98 7.99Q74.58 7.12 74.62 6.24L72.67 6.24Q72.48 6.91 72.18 7.26Q71.65 7.86 70.60 7.86Q69.53 7.86 68.92 7.00Q68.30 6.14 68.30 4.57Q68.30 3.00 68.95 2.21Q69.60 1.43 70.60 1.43Q71.63 1.43 72.17 2.10Q72.47 2.46 72.67 3.19L74.60 3.19Q74.35 1.66 73.31 0.70ZM75.40 9.36L77.49 9.36L79.52 2.25L81.57 9.36L83.60 9.36L80.41 0.00L78.56 0.00Z"/>
  </g>
</svg>